<svg width="272" height="232" viewBox="0 0 272 232" fill="none" xmlns="http://www.w3.org/2000/svg">
<path d="M156.833 29.4726C156.775 29.4373 156.707 29.4245 156.64 29.4367C156.573 29.449 156.514 29.4853 156.473 29.5387C156.431 29.5922 156.412 29.6589 156.417 29.726C156.422 29.7931 156.453 29.8558 156.502 29.902C171.867 41.7026 182.302 58.7352 185.8 77.7242C189.298 96.7132 185.612 116.318 175.451 132.767C165.289 149.217 149.37 161.35 130.755 166.834C112.139 172.317 92.1424 170.763 74.6097 162.471C75.5597 142.147 86.0392 130.481 87.2483 129.05C89.4495 130.295 91.9127 131.012 94.4418 131.144C96.9709 131.276 99.496 130.818 101.816 129.808C105.918 128.26 109.618 125.815 112.641 122.652C116.159 118.44 118.436 113.343 119.219 107.924C119.222 107.881 119.215 107.838 119.199 107.798C119.183 107.759 119.158 107.723 119.126 107.694C119.094 107.666 119.056 107.644 119.015 107.632C118.974 107.62 118.931 107.616 118.888 107.623C116.124 108.343 113.474 109.441 111.014 110.886C110.468 108.806 109.51 106.856 108.195 105.149C106.881 103.442 105.237 102.014 103.36 100.947C101.482 99.8805 99.41 99.1975 97.2638 98.9379C95.1176 98.6784 92.9409 98.8477 90.8614 99.4358C90.8603 96.6283 90.4679 93.8345 89.6955 91.1341C89.6812 91.0944 89.6578 91.0586 89.6272 91.0294C89.5965 91.0003 89.5595 90.9786 89.5191 90.9661C89.4786 90.9536 89.4357 90.9506 89.3939 90.9574C89.3521 90.9642 89.3124 90.9806 89.278 91.0053C84.9666 94.4067 81.6961 98.9376 79.835 104.088C78.6481 108.213 78.3974 112.55 79.1009 116.783C79.3856 119.218 80.218 121.558 81.5362 123.63C82.8544 125.701 84.6247 127.451 86.7157 128.749C85.1323 130.467 75.315 141.817 74.0339 161.183C73.1911 155.935 71.2277 150.928 68.2759 146.498C51.7075 121.02 51.0021 110.614 50.1096 96.4014C53.2406 95.9284 56.0779 94.3014 58.0577 91.8438C60.0375 89.3861 61.0148 86.2777 60.7953 83.1364C60.5759 79.995 59.1758 77.0508 56.8733 74.8889C54.5708 72.727 51.5345 71.5057 48.3679 71.4677C47.8426 69.0935 46.661 66.9123 44.9563 65.1699C43.1098 63.4862 40.817 62.3636 38.349 61.9351C38.3062 61.9265 38.2619 61.9289 38.2202 61.942C38.1786 61.9551 38.1409 61.9784 38.1108 62.0098C38.0806 62.0412 38.0589 62.0797 38.0477 62.1217C38.0365 62.1637 38.0362 62.2078 38.0468 62.25C38.5601 64.6837 39.7582 66.9223 41.5015 68.7052C42.9392 70.0292 44.6626 71.0084 46.5397 71.5679C43.2183 71.9665 40.1921 73.6607 38.1269 76.2778C36.0618 78.895 35.1268 82.2207 35.5277 85.5233C35.9285 88.8259 37.6324 91.8349 40.2645 93.8884C42.8965 95.9418 46.2412 96.8715 49.5626 96.4729C50.5415 112.217 51.9522 122.437 67.8153 146.827C70.8554 151.401 72.8232 156.596 73.5732 162.028C68.7919 159.692 64.2628 156.876 60.0565 153.626C59.2502 146.861 56.5185 140.465 52.1825 135.19C52.1589 135.155 52.1268 135.126 52.0891 135.106C52.0514 135.086 52.0093 135.075 51.9666 135.075C51.9238 135.075 51.8817 135.086 51.844 135.106C51.8064 135.126 51.7743 135.155 51.7506 135.19C50.4159 137.599 49.3676 140.155 48.627 142.805C36.3644 128.626 29.6361 110.536 29.669 91.8354C29.669 52.5599 57.7389 20.0259 96.4179 14.5439C96.4904 14.5439 96.56 14.5153 96.6112 14.4643C96.6625 14.4132 96.6914 14.3441 96.6914 14.2719C96.6914 14.1998 96.6625 14.1307 96.6112 14.0797C96.56 14.0287 96.4904 14 96.4179 14C82.3963 16.1243 69.2061 21.9549 58.2261 30.8823C47.2462 39.8097 38.8798 51.5061 34.0016 64.7487C29.1233 77.9913 27.9124 92.2938 30.4953 106.161C33.0783 120.028 39.3603 132.951 48.6845 143.578C46.367 152.166 47.2451 160.167 52.4128 168.783C49.0155 165.129 44.8603 162.253 40.2348 160.353C33.7915 158.131 26.8539 157.735 20.1971 159.208C20.157 159.22 20.12 159.24 20.0891 159.268C20.0583 159.296 20.0342 159.331 20.0189 159.37C20.0036 159.408 19.9975 159.45 20.0009 159.491C20.0044 159.533 20.0173 159.573 20.0388 159.609C23.9621 165.155 29.3599 169.506 35.6284 172.176C39.3856 173.563 43.3671 174.252 47.3746 174.208C50.1687 174.223 52.9554 173.921 55.6804 173.306C57.2351 174.308 69.3412 182.839 67.9305 203.98C66.0879 216.633 68.5062 214.285 65.2674 208.732C63.0494 205.216 59.8888 202.386 56.1411 200.559C56.1028 200.54 56.0604 200.531 56.0176 200.532C55.9748 200.533 55.933 200.545 55.8959 200.566C55.8589 200.588 55.8277 200.618 55.8051 200.654C55.7826 200.69 55.7694 200.731 55.7668 200.774C55.3575 204.889 56.2461 209.029 58.3096 212.62C60.3731 216.21 63.5091 219.073 67.2827 220.812L53.2045 224.548C52.2714 224.853 51.4912 225.502 51.024 226.361C50.5568 227.22 50.4381 228.224 50.6924 229.168C50.9466 230.111 51.5544 230.922 52.391 231.433C53.2277 231.945 54.2296 232.119 55.191 231.919L84.3694 224.033C84.8561 223.905 85.3128 223.683 85.7133 223.38C86.1139 223.076 86.4504 222.697 86.7037 222.265C86.957 221.832 87.1221 221.354 87.1896 220.858C87.2571 220.362 87.2257 219.858 87.0972 219.374C86.9686 218.89 86.7455 218.436 86.4404 218.037C86.1354 217.639 85.7545 217.304 85.3194 217.053C84.8843 216.801 84.4036 216.636 83.9047 216.569C83.4058 216.502 82.8984 216.533 82.4117 216.661L67.8441 220.54C67.9131 218.89 67.8263 217.236 67.585 215.602C67.3547 198.254 74.2354 183.884 74.6385 168.955C74.6452 168.913 74.6452 168.869 74.6385 168.826C74.6385 168.053 74.6385 167.152 74.5521 165.005C74.5521 164.346 74.5521 163.688 74.5521 163.058C92.2264 171.499 112.422 173.118 131.228 167.602C150.034 162.086 166.112 149.828 176.35 133.2C186.588 116.573 190.257 96.7601 186.646 77.5976C183.035 58.4352 172.401 41.2867 156.804 29.4726H156.833ZM111.187 111.488C113.529 110.102 116.046 109.033 118.672 108.31C117.861 113.476 115.652 118.324 112.281 122.337C110.404 124.38 108.201 126.102 105.76 127.432C108.057 125.532 109.78 123.036 110.738 120.222C111.696 117.408 111.851 114.384 111.187 111.488ZM101.643 129.35C100.781 129.7 99.8961 129.992 98.9945 130.224C99.7895 125.05 101.989 120.19 105.357 116.168C106.916 114.452 108.715 112.968 110.698 111.759C111.454 115.28 110.967 118.952 109.317 122.156C107.668 125.361 104.957 127.902 101.643 129.35ZM80.5691 120.262C84.7979 116.864 88.0092 112.379 89.8538 107.294C90.5861 104.943 90.9693 102.498 90.991 100.037C93.0158 99.4569 95.1372 99.288 97.229 99.5402C99.3208 99.7924 101.34 100.461 103.167 101.505C104.994 102.549 106.59 103.949 107.862 105.619C109.133 107.29 110.054 109.198 110.568 111.23C108.479 112.484 106.584 114.032 104.94 115.824C101.452 119.973 99.19 125.002 98.4043 130.352C94.7043 131.084 90.8629 130.467 87.5826 128.615C84.3024 126.762 81.8026 123.797 80.5403 120.262H80.5691ZM48.2959 96.0149C45.9072 96.0149 43.5722 95.3106 41.5861 93.9911C39.6 92.6715 38.052 90.796 37.1379 88.6017C36.2238 86.4073 35.9847 83.9928 36.4507 81.6633C36.9167 79.3338 38.0669 77.194 39.756 75.5146C41.445 73.8351 43.597 72.6914 45.9397 72.228C48.2825 71.7647 50.7108 72.0025 52.9177 72.9114C55.1245 73.8203 57.0107 75.3595 58.3378 77.3344C59.6648 79.3092 60.3732 81.631 60.3732 84.0061C60.3732 87.191 59.1007 90.2455 56.8358 92.4976C54.5709 94.7497 51.499 96.0149 48.2959 96.0149ZM84.9883 217.506C85.5506 217.831 86.0037 218.313 86.2906 218.894C86.5775 219.474 86.6854 220.125 86.6008 220.767C86.5162 221.408 86.2428 222.009 85.815 222.496C85.3872 222.983 84.8241 223.334 84.1966 223.503L54.9895 231.289C54.1439 231.515 53.2426 231.398 52.484 230.963C51.7255 230.528 51.1717 229.812 50.9445 228.971C50.7174 228.13 50.8355 227.234 51.2728 226.479C51.7101 225.725 52.4309 225.175 53.2765 224.949L82.4836 217.162C83.3318 216.951 84.2295 217.074 84.9883 217.506ZM52.1537 135.834C56.158 140.841 58.7291 146.829 59.5958 153.168C55.8338 150.221 52.3502 146.939 49.1884 143.363C49.8989 140.754 50.8932 138.229 52.1537 135.834ZM35.7292 171.617C29.6833 169.047 24.4574 164.885 20.6146 159.58C27.0455 158.233 33.7239 158.654 39.9325 160.797C45.9769 163.363 51.1992 167.526 55.0327 172.834C48.6013 174.162 41.9276 173.722 35.7292 171.56V171.617ZM68.535 199.929C68.3047 181.594 57.6669 173.879 55.9683 172.734C58.988 167.069 60.4761 160.721 60.2868 154.313C64.5115 157.52 69.0438 160.305 73.8179 162.629C75.2142 174.738 70.8958 186.761 68.535 199.929Z" fill="#F3387E"/>
<path d="M98.5389 119.842C98.7526 119.493 98.8903 119.108 98.9442 118.71C98.9981 118.311 98.9671 117.906 98.853 117.519C98.7389 117.132 98.5439 116.769 98.2793 116.452C98.0147 116.136 97.6856 115.871 97.311 115.673L95.8664 114.918L98.5823 110.479C99.9139 111.292 101.304 112.018 102.743 112.651C102.801 112.648 102.856 112.628 102.9 112.593C102.945 112.559 102.977 112.512 102.991 112.459C103.006 112.407 103.002 112.352 102.981 112.301C102.959 112.251 102.922 112.208 102.873 112.179L98.8423 110.034L99.8246 108.429C99.8521 108.401 99.8725 108.367 99.8844 108.331C99.8962 108.295 99.8993 108.256 99.8933 108.219C99.8873 108.181 99.8724 108.145 99.8497 108.113C99.8269 108.082 99.797 108.055 99.7619 108.036C99.7269 108.016 99.6877 108.005 99.6471 108.001C99.6065 107.998 99.5656 108.003 99.5273 108.016C99.4891 108.029 99.4544 108.05 99.4259 108.077C99.3973 108.104 99.3756 108.137 99.3623 108.173L98.38 109.778L96.9354 109.023C96.3713 108.727 95.7264 108.593 95.0813 108.638C94.4362 108.682 93.8195 108.903 93.308 109.273C92.7965 109.643 92.4129 110.145 92.2051 110.717C91.9972 111.289 91.9744 111.905 92.1393 112.49C92.2511 112.88 92.4455 113.246 92.7109 113.566C92.9764 113.886 93.3076 114.153 93.6851 114.351L95.1297 115.107L92.4138 119.545L88.4123 117.427C88.3491 117.393 88.274 117.384 88.2035 117.401C88.1331 117.419 88.0731 117.462 88.0367 117.521C88.0003 117.58 87.9905 117.65 88.0095 117.716C88.0284 117.782 88.0746 117.838 88.1378 117.872L92.1682 120.017L91.1859 121.622C91.1633 121.662 91.152 121.706 91.1532 121.75C91.1545 121.795 91.1682 121.839 91.193 121.877C91.2178 121.915 91.2529 121.946 91.2947 121.968C91.3365 121.99 91.3837 122.001 91.4315 122C91.6337 122 91.5759 122 92.645 120.26C93.515 120.912 94.5687 121.315 95.6786 121.42C96.2627 121.419 96.8358 121.272 97.3387 120.994C97.8415 120.717 98.2559 120.319 98.5389 119.842ZM94.0029 113.906C93.3726 113.57 92.9113 113.013 92.7203 112.359C92.5293 111.705 92.6243 111.007 92.9844 110.419C93.3446 109.83 93.9403 109.399 94.6407 109.221C95.341 109.043 96.0885 109.131 96.7187 109.468L98.1633 110.223L95.4186 114.729L94.0029 113.906ZM94.3207 120.543L92.8761 119.801L95.5775 115.349L97.0221 116.105C97.3365 116.27 97.6122 116.493 97.833 116.759C98.0538 117.025 98.2153 117.331 98.3078 117.656C98.443 118.142 98.4227 118.653 98.2495 119.128C98.0762 119.603 97.7577 120.02 97.3333 120.327C96.9088 120.634 96.3972 120.818 95.8617 120.857C95.3262 120.895 94.7904 120.786 94.3207 120.543Z" fill="#F3387E"/>
<path d="M153.768 28C152.995 28 138.117 13.3933 112.267 11.5512C112.196 11.5512 112.128 11.5222 112.078 11.4705C112.028 11.4188 112 11.3487 112 11.2756C112 11.2025 112.028 11.1324 112.078 11.0807C112.128 11.029 112.196 11 112.267 11C127.424 12.1059 141.917 17.853 153.894 27.5068C153.936 27.5398 153.968 27.585 153.985 27.6368C154.003 27.6885 154.005 27.7443 153.991 27.7972C153.978 27.8501 153.949 27.8977 153.909 27.9338C153.869 27.9699 153.82 27.9929 153.768 28Z" fill="#F3387E"/>
<path d="M235.51 75.1568C235.51 75.1568 217.266 88.5881 209.449 101.097C205.362 96.6958 201.959 91.7069 199.353 86.2967C190.699 68.6861 179.796 68.4267 174.979 67C171.892 70.8622 166.037 74.5515 160.859 76.7997C157.305 90.3743 155.021 104.25 154.037 118.247C153.843 120.781 154.41 123.315 155.667 125.524L179.234 167C184.941 165.414 190.289 162.743 194.983 159.131C189.214 142.919 184.209 127.845 175.368 117.339C177.488 113.217 180.546 107.582 182.58 103.086C186.459 109.571 192.949 116.056 200.997 122.022C203.56 123.93 206.746 124.806 209.924 124.478C213.103 124.149 216.042 122.641 218.16 120.25L248 86.5994C244.56 82.0653 240.329 78.189 235.51 75.1568Z" fill="#E6E7E8"/>
<path d="M100.94 27.9578L86.748 0.151365C86.7194 0.090399 86.6688 0.0427551 86.6065 0.01818C86.5442 -0.00639508 86.475 -0.00604377 86.4129 0.0191634L59.0194 9.89021C58.9564 9.91352 58.9038 9.95916 58.8717 10.0186C58.8395 10.0781 58.8299 10.1473 58.8446 10.2134L61.8899 24.4618L42.6562 17.6754C42.5904 17.6557 42.5197 17.6613 42.4578 17.6911C42.3959 17.721 42.3471 17.773 42.3211 17.837L41.0243 20.9217C41.0097 20.9535 41.0015 20.9879 41.0002 21.0229C40.9989 21.0579 41.0045 21.0928 41.0167 21.1256C41.0289 21.1584 41.0474 21.1884 41.0713 21.214C41.0951 21.2395 41.1237 21.26 41.1554 21.2742L63.6967 32.908C65.5327 41.5011 65.3578 40.8841 65.5181 40.9723C65.6784 41.0604 65.5181 40.9723 67.8932 40.2084C67.9627 40.1831 68.0195 40.131 68.0509 40.0635C68.0823 39.996 68.0859 39.9187 68.0607 39.8485C68.0356 39.7784 67.9839 39.7212 67.917 39.6895C67.85 39.6579 67.7733 39.6543 67.7038 39.6796C67.4561 39.0921 68.5634 38.6808 71.1862 38.6367C71.1885 38.6796 71.2006 38.7214 71.2215 38.7589C71.2425 38.7963 71.2717 38.8284 71.307 38.8525C71.3423 38.8767 71.3826 38.8923 71.4248 38.8982C71.4671 38.9041 71.5101 38.9 71.5505 38.8864L85.8884 33.7159C85.9413 33.6824 85.9814 33.6319 86.0022 33.5725C86.0231 33.5132 86.0234 33.4485 86.0031 33.3889C85.9829 33.3294 85.9432 33.2785 85.8907 33.2445C85.8381 33.2105 85.7756 33.1954 85.7135 33.2017C85.2472 31.7328 85.2327 30.7193 87.5057 32.5848C87.4672 32.6319 87.4451 32.6904 87.4427 32.7514C87.4403 32.8124 87.4578 32.8724 87.4925 32.9224C87.5272 32.9724 87.5772 33.0096 87.6349 33.0282C87.6925 33.0468 87.7547 33.0458 87.8117 33.0255L100.926 28.3103C100.971 28.2636 100.997 28.2019 101 28.1368C101.002 28.0718 100.981 28.008 100.94 27.9578Z" fill="#F3387E"/>
<path d="M27.9614 37.9753C24.9129 31.7104 25.1256 32.0608 24.9554 32.0187C24.7853 31.9767 25.2532 31.7384 19.1278 35.3404C19.097 35.3579 19.0701 35.3812 19.0485 35.4089C19.0269 35.4367 19.011 35.4684 19.0018 35.5023C18.9926 35.5361 18.9902 35.5714 18.9948 35.6062C18.9994 35.6409 19.0108 35.6744 19.0285 35.7048C19.0642 35.7661 19.1232 35.8109 19.1923 35.8293C19.2265 35.8384 19.2622 35.8408 19.2974 35.8363C19.3325 35.8317 19.3665 35.8204 19.3972 35.8029L24.3741 32.8456L19.6382 47.9823C3.80011 53.2101 4.73593 52.8597 4.66504 53.0419L0.0284515 62.6145C0.0126242 62.6458 0.00318683 62.6798 0.00067801 62.7147C-0.00183082 62.7496 0.00263822 62.7847 0.0138298 62.8179C0.0250214 62.851 0.042716 62.8817 0.0659042 62.9082C0.0890923 62.9346 0.11732 62.9562 0.148974 62.9719C0.180629 62.9875 0.215091 62.9969 0.250393 62.9993C0.285695 63.0018 0.321145 62.9974 0.354719 62.9863C0.388294 62.9753 0.419336 62.9578 0.446072 62.9349C0.472808 62.9119 0.494716 62.884 0.510543 62.8527L5.09041 53.3362L19.9785 48.4448C20.177 48.4448 19.8226 49.3138 24.9412 33.0278L27.4793 38.2556C27.5169 38.3188 27.5784 38.3646 27.6502 38.383C27.722 38.4014 27.7982 38.3909 27.8621 38.3537C27.9261 38.3165 27.9724 38.2558 27.991 38.1848C28.0097 38.1139 27.999 38.0385 27.9614 37.9753Z" fill="#F3387E"/>
<path d="M53.9846 86.422C53.921 85.763 53.5791 85.1529 53.0316 84.7215C52.4842 84.2902 51.7745 84.0718 51.0538 84.1128L49.7642 84.2202L49.3686 80.1927L53.1347 79.8704C53.1958 79.8573 53.2503 79.8257 53.2894 79.7806C53.3284 79.7355 53.3496 79.6796 53.3496 79.6221C53.3496 79.5645 53.3284 79.5087 53.2894 79.4636C53.2503 79.4185 53.1958 79.3868 53.1347 79.3737L49.3539 79.6825L49.2074 78.2326C49.2074 77.8835 48.6359 77.9641 48.6652 78.2326L48.8117 79.6691C47.5222 79.7765 46.511 79.6691 45.6465 80.6894C45.3087 81.0574 45.0927 81.5061 45.0238 81.9828C44.955 82.4594 45.0362 82.9442 45.2578 83.38C45.4795 83.8158 45.8325 84.1845 46.2751 84.4428C46.7178 84.701 47.2318 84.8381 47.7566 84.8378L49.31 84.7304L49.7056 88.758L45.8809 89.107C45.8198 89.1201 45.7652 89.1518 45.7262 89.1969C45.6872 89.242 45.6659 89.2979 45.6659 89.3554C45.6659 89.4129 45.6872 89.4688 45.7262 89.5139C45.7652 89.559 45.8198 89.5907 45.8809 89.6038L49.6763 89.295L49.8082 90.7449C49.8082 90.8126 49.8375 90.8774 49.8897 90.9253C49.942 90.9731 50.0128 91 50.0866 91C50.1605 91 50.2313 90.9731 50.2835 90.9253C50.3357 90.8774 50.365 90.8126 50.365 90.7449L50.2185 89.3084L51.5081 89.201C51.8706 89.1692 52.2225 89.0718 52.5437 88.9145C52.8649 88.7573 53.1488 88.5432 53.3791 88.2848C53.6094 88.0264 53.7815 87.7287 53.8854 87.4089C53.9893 87.0892 54.0231 86.7537 53.9846 86.422ZM47.8446 84.3813C47.5445 84.4263 47.2376 84.4141 46.9429 84.3455C46.6482 84.2769 46.3721 84.1534 46.1318 83.9827C45.8916 83.8121 45.6923 83.5979 45.5464 83.3535C45.4005 83.1091 45.3111 82.8398 45.2838 82.5624C45.2566 82.285 45.292 82.0054 45.388 81.741C45.4839 81.4767 45.6382 81.2334 45.8414 81.0261C46.0445 80.8189 46.2921 80.6522 46.5687 80.5365C46.8453 80.4209 47.1449 80.3586 47.4489 80.3538L48.7384 80.2464L49.1341 84.2739L47.8446 84.3813ZM52.9295 87.939C52.75 88.1429 52.528 88.312 52.2764 88.4365C52.0248 88.561 51.7486 88.6383 51.4641 88.664L50.1452 88.7714L49.7349 84.7438L51.0245 84.6364C51.4527 84.5999 51.8832 84.6785 52.2634 84.8626C52.6436 85.0466 52.957 85.3282 53.1654 85.6729C53.3737 86.0176 53.4679 86.4104 53.4364 86.8033C53.4049 87.1962 53.2491 87.5722 52.9881 87.8853L52.9295 87.939Z" fill="#F3387E"/>
<path d="M103.846 192.653L86.2597 184.391C81.8144 182.293 78.7166 189.219 83.1619 191.346L100.776 199.622C105.18 201.677 108.278 194.78 103.846 192.653ZM100.971 199.119L83.3842 190.857C82.6178 190.491 82.0234 189.826 81.7316 189.006C81.4398 188.187 81.4746 187.282 81.8283 186.489C82.182 185.696 82.8256 185.081 83.6176 184.78C84.4096 184.478 85.285 184.514 86.0513 184.88L103.638 193.142C107.458 194.981 104.735 200.901 100.971 199.119Z" fill="#F3387E"/>
<path d="M136.493 183C135.417 182.999 134.365 182.682 133.468 182.088C132.57 181.495 131.866 180.651 131.443 179.662C131.02 178.673 130.896 177.581 131.088 176.522C131.279 175.463 131.777 174.483 132.52 173.704C133.262 172.926 134.217 172.382 135.266 172.14C136.314 171.899 137.411 171.97 138.419 172.346C139.428 172.721 140.304 173.384 140.939 174.253C141.574 175.121 141.941 176.157 141.993 177.232C142.03 177.977 141.914 178.721 141.654 179.419C141.394 180.118 140.995 180.756 140.48 181.296C139.966 181.835 139.347 182.264 138.662 182.557C137.977 182.85 137.239 183.001 136.493 183ZM136.493 172.536C135.663 172.532 134.844 172.737 134.113 173.13C133.381 173.524 132.76 174.095 132.305 174.79C131.851 175.486 131.577 176.284 131.51 177.112C131.443 177.94 131.584 178.771 131.921 179.531C132.257 180.29 132.779 180.954 133.437 181.46C134.096 181.967 134.87 182.3 135.691 182.431C136.511 182.561 137.351 182.484 138.135 182.207C138.918 181.929 139.619 181.46 140.174 180.842C140.809 180.127 141.226 179.244 141.373 178.299C141.521 177.354 141.394 176.387 141.008 175.512C140.622 174.637 139.992 173.891 139.194 173.363C138.397 172.836 137.464 172.549 136.508 172.536H136.493Z" fill="#F3387E"/>
<path d="M151.493 196C150.417 195.999 149.365 195.682 148.468 195.088C147.57 194.495 146.866 193.651 146.443 192.662C146.02 191.673 145.896 190.581 146.088 189.522C146.279 188.463 146.777 187.483 147.52 186.704C148.262 185.926 149.217 185.382 150.266 185.14C151.314 184.899 152.411 184.97 153.419 185.346C154.428 185.721 155.304 186.384 155.939 187.253C156.574 188.121 156.941 189.157 156.993 190.232C157.03 190.977 156.914 191.721 156.654 192.419C156.394 193.118 155.995 193.756 155.48 194.296C154.966 194.835 154.347 195.264 153.662 195.557C152.977 195.85 152.239 196.001 151.493 196ZM151.493 185.536C150.502 185.537 149.533 185.835 148.712 186.392C147.892 186.949 147.256 187.739 146.889 188.66C146.521 189.581 146.438 190.591 146.65 191.56C146.861 192.529 147.359 193.412 148.077 194.096C148.795 194.78 149.702 195.232 150.68 195.396C151.659 195.56 152.663 195.427 153.565 195.014C154.467 194.601 155.224 193.928 155.74 193.08C156.256 192.233 156.505 191.251 156.458 190.26C156.389 188.99 155.839 187.795 154.919 186.917C153.999 186.039 152.779 185.545 151.508 185.536H151.493Z" fill="#F3387E"/>
<path d="M132.278 196.977C132.224 196.978 132.171 196.962 132.126 196.932C132.08 196.902 132.045 196.859 132.023 196.809C132.001 196.758 131.995 196.702 132.004 196.648C132.013 196.594 132.038 196.543 132.075 196.503L155.52 170.09C155.57 170.035 155.639 170.003 155.713 170C155.786 169.997 155.858 170.025 155.911 170.076C155.965 170.127 155.997 170.198 156 170.273C156.003 170.348 155.976 170.421 155.926 170.476C130.741 198.77 132.466 196.977 132.278 196.977Z" fill="#F3387E"/>
<path d="M213.78 62.9984C213.751 63.0023 213.722 62.9991 213.694 62.9891C213.666 62.9791 213.64 62.9625 213.618 62.9404C213.596 62.9183 213.578 62.8912 213.567 62.8609C213.555 62.8305 213.549 62.7977 213.549 62.7645L213 50.2613C213 50.192 213.024 50.1256 213.068 50.0765C213.111 50.0275 213.17 50 213.232 50C213.293 50 213.352 50.0275 213.396 50.0765C213.439 50.1256 213.463 50.192 213.463 50.2613L214 62.7645C213.997 62.8278 213.972 62.8873 213.932 62.9308C213.891 62.9743 213.837 62.9985 213.78 62.9984Z" fill="#F3387E"/>
<path d="M206.202 56C206.145 55.9881 206.093 55.9593 206.057 55.9184C206.02 55.8774 206 55.8267 206 55.7744C206 55.7221 206.02 55.6714 206.057 55.6304C206.093 55.5895 206.145 55.5607 206.202 55.5488L218.738 55C218.807 55 218.874 55.0244 218.923 55.0679C218.972 55.1113 219 55.1703 219 55.2317C219 55.2932 218.972 55.3521 218.923 55.3955C218.874 55.439 218.807 55.4634 218.738 55.4634L206.202 56Z" fill="#F3387E"/>
<path d="M271.912 63.3849C271.951 63.3488 271.979 63.3019 271.992 63.25C272.005 63.1981 272.002 63.1436 271.984 63.0933C271.965 63.0431 271.932 62.9995 271.889 62.9678C271.845 62.9362 271.794 62.9181 271.74 62.9158C265.095 62.6315 248.482 66.7679 243.412 69.5397C243.068 69.7387 240.333 74.0456 237.683 76.988C236.967 76.4952 236.237 76.0214 235.492 75.5666C235.448 75.5353 235.396 75.5185 235.342 75.5185C235.288 75.5185 235.235 75.5353 235.191 75.5666C234.991 75.7087 217.29 88.7432 209.413 100.982C205.469 96.7509 202.181 91.9602 199.66 86.7674C192.184 71.3876 182.99 69.2838 177.419 68.0188C176.646 67.8482 175.987 67.6918 175.4 67.5213C174.478 66.8237 173.594 66.0788 172.75 65.2896C173.737 65.3162 174.723 65.2207 175.686 65.0053C177.391 64.7285 178.995 64.019 180.343 62.9456C181.69 61.8722 182.735 60.4713 183.377 58.879C184.001 57.4762 184.3 55.9518 184.251 54.4188C184.201 52.8858 183.804 51.3836 183.09 50.0234C179.739 43.826 170.273 41.2674 168.325 40.7983C169.041 39.3769 171.633 33.08 165.69 29.5406C160.906 26.6977 156.939 25.8307 153.918 26.9963C152.983 27.3676 152.137 27.9305 151.436 28.6481C150.736 29.3657 150.195 30.222 149.85 31.161C149.507 31.9997 147.874 35.9086 147.502 36.8468C135.085 30.2798 114.749 15.6106 114.562 15.5253C114.519 15.4941 114.466 15.4773 114.412 15.4773C114.358 15.4773 114.305 15.4941 114.262 15.5253C113.889 15.7385 113.517 15.9517 113.159 16.1934C112.414 14.8442 112.002 13.339 111.956 11.8012C111.942 10.252 111.485 8.73862 110.638 7.43736C109.45 6.01593 108.59 5.23414 107.13 6.34285C106.786 5.93064 105.697 4.72242 105.697 4.72242C105.437 4.39626 105.077 4.16361 104.671 4.06001C104.265 3.95641 103.836 3.98756 103.449 4.14871C103.063 4.30985 102.74 4.59213 102.531 4.9524C102.321 5.31268 102.236 5.73114 102.289 6.14385C101.972 5.76011 101.517 5.5132 101.021 5.45496C100.524 5.39671 100.024 5.53166 99.6258 5.83148C99.2274 6.13129 98.9615 6.57265 98.8839 7.06291C98.8063 7.55316 98.9231 8.05418 99.2098 8.46079C98.831 8.39362 98.4406 8.44102 98.0893 8.59684C97.738 8.75265 97.442 9.00969 97.2397 9.33457C97.0375 9.65946 96.9383 10.0372 96.955 10.4187C96.9718 10.8003 97.1037 11.168 97.3337 11.4742C97.4339 11.5879 97.5342 11.7159 97.6631 11.8438C97.3194 11.832 96.9792 11.9149 96.6801 12.0833C96.3811 12.2518 96.1348 12.4991 95.9687 12.7979C95.8026 13.0967 95.7231 13.4353 95.7391 13.7763C95.755 14.1172 95.8658 14.447 96.0591 14.7293C96.2739 14.9709 96.5031 15.2126 96.7608 15.4542C96.7608 16.2502 97.1905 20.2729 106.141 25.7596C105.941 26.314 105.769 26.8825 105.611 27.4511C105.599 27.5052 105.601 27.5618 105.619 27.6145C105.636 27.6673 105.669 27.7141 105.712 27.7496C112.686 32.7673 129.886 44.9347 137.462 49.0711C132.82 51.434 128.405 54.2126 124.272 57.3722C123.198 56.6473 115.164 51.2032 102.504 42.7884C102.46 42.7634 102.411 42.7503 102.361 42.7503C102.31 42.7503 102.261 42.7634 102.217 42.7884C101.773 43.0442 101.329 43.3143 100.914 43.5844C96.6479 40.6876 92.5636 37.5357 88.6836 34.146C86.0627 31.6728 85.2178 31.3032 84.7738 31.6585C84.3299 32.0139 84.8598 33.8191 85.1605 34.6293C85.6474 35.9086 88.6836 40.0592 88.0248 41.1111C87.8386 41.4238 87.3374 41.3243 87.1941 41.3669C82.1605 39.7912 76.9612 38.7944 71.6984 38.3961C67.1585 38.3251 67.0439 39.1637 67.001 39.4338C66.9948 39.5628 67.0187 39.6915 67.0708 39.8099C67.123 39.9282 67.202 40.033 67.3017 40.1161C68.4188 41.2248 71.2831 41.7081 74.7918 42.9589C73.1592 42.9589 71.2258 43.1011 71.1112 43.1011C68.8627 43.229 67.6454 43.6554 67.5738 44.3519C67.5715 44.5148 67.628 44.6731 67.7331 44.7982C67.8381 44.9234 67.9849 45.0071 68.1467 45.0342C70.0514 45.5033 73.0589 45.9724 75.2358 46.4556C74.2189 46.6831 71.5695 47.2659 71.6411 48.3177C71.6646 48.4799 71.745 48.6287 71.8681 48.7379C71.9912 48.8471 72.1492 48.9097 72.3142 48.9147C77.8279 49.3554 80.5347 48.4172 88.7838 51.0469C89.6145 51.587 91.6481 53.2501 93.1662 54.5578C93.0086 55.1548 92.8797 55.7802 92.7652 56.4199C92.7545 56.4697 92.7583 56.5215 92.776 56.5693C92.7938 56.6171 92.8247 56.6589 92.8654 56.69C92.98 56.7752 104.036 64.7068 111.684 70.1509C117.899 74.5716 121.909 77.1301 128.698 73.9319C133.73 71.293 138.612 68.3793 143.32 65.2043C147.86 69.4686 155.106 75.1543 160.892 77.6703C157.404 91.0031 155.156 104.625 154.175 118.366C153.972 120.919 154.546 123.474 155.822 125.7C180.283 168.457 179.18 166.695 179.424 166.751C180.477 166.522 181.515 166.228 182.532 165.87L185.654 171.243C188.26 184.889 190.795 190.688 195.034 197.383C195.65 198.35 195.722 198.094 196.037 197.213C198.414 190.688 199.631 174.47 198.658 169.054C198.572 168.599 195.206 164.577 192.929 160.526C193.717 160.014 194.504 159.459 195.306 158.891C195.355 158.857 195.392 158.808 195.41 158.751C195.428 158.695 195.427 158.634 195.407 158.578C190.151 143.923 185.153 128.16 175.987 117.357C177.877 113.704 180.785 108.402 182.904 103.896C186.642 109.923 192.729 116.092 200.992 122.218C203.596 124.124 206.823 124.997 210.042 124.666C213.26 124.334 216.238 122.823 218.393 120.427L248.038 87.2223C248.072 87.1744 248.09 87.1173 248.09 87.0588C248.09 87.0003 248.072 86.9432 248.038 86.8954C247.494 86.1846 246.921 85.4739 246.334 84.8059L249.728 81.0533C262.13 74.0314 266.785 69.7529 271.912 63.3849ZM150.294 31.488C150.821 31.4567 151.351 31.4901 151.87 31.5875C151.612 32.4688 151.354 33.9186 151.87 34.2313C152.041 34.3308 152.314 34.3593 152.7 33.9471C154.003 32.5256 155.121 34.6578 152.557 36.4346C152.515 36.4615 152.482 36.5001 152.461 36.5455C152.441 36.591 152.434 36.6413 152.442 36.6904C153.538 43.3801 155.973 49.7842 159.603 55.5244C156.739 53.4349 153.746 47.6212 149.22 46.5551C150.239 44.774 151.124 42.9212 151.87 41.0116C151.887 40.9647 151.892 40.9138 151.882 40.8646C151.873 40.8154 151.85 40.7699 151.815 40.733C151.781 40.6961 151.737 40.6694 151.689 40.6558C151.64 40.6423 151.589 40.6424 151.54 40.6562C150.495 40.9689 147.43 41.8218 147.129 40.7699C146.972 39.0358 148.447 36.0508 150.294 31.488ZM105.311 5.03514L106.743 6.64135C106.242 7.09621 105.64 7.73586 104.867 8.58872C104.249 7.96614 103.67 7.30629 103.134 6.61293C103.051 6.3321 103.057 6.03265 103.152 5.75549C103.247 5.47832 103.425 5.23694 103.663 5.06433C103.901 4.89171 104.188 4.79627 104.482 4.79105C104.777 4.78582 105.067 4.87107 105.311 5.03514ZM101.96 6.45657C102.504 7.03935 103.793 8.33286 104.408 8.98671L103.764 9.69743C102.819 10.7351 103.764 12.3271 105.941 11.5879C105.936 11.8357 105.855 12.0761 105.708 12.2765C105.562 12.4769 105.356 12.6277 105.12 12.7083C104.884 12.789 104.629 12.7957 104.389 12.7275C104.149 12.6593 103.936 12.5195 103.778 12.3271C102.26 10.7635 100.427 9.01514 99.7254 8.06278C99.632 7.77446 99.6338 7.46406 99.7306 7.17685C99.8274 6.88963 100.014 6.64061 100.263 6.46608C100.513 6.29155 100.812 6.20064 101.117 6.2066C101.422 6.21256 101.717 6.31508 101.96 6.49921V6.45657ZM99.9259 9.29943C101.115 10.5219 102.461 11.8722 103.492 13.052C104.824 14.4734 103.062 16.1934 101.587 14.7577C100.112 13.3221 98.4937 11.8864 97.7633 11.062C97.6561 10.7779 97.6432 10.4671 97.7267 10.1752C97.8102 9.88329 97.9856 9.62555 98.2273 9.4397C98.4689 9.25385 98.7642 9.14963 99.0698 9.14229C99.3755 9.13496 99.6754 9.22489 99.9259 9.39893V9.29943ZM96.4744 14.3171C96.3587 14.0505 96.3357 13.7534 96.4088 13.4724C96.482 13.1914 96.6473 12.9426 96.8786 12.7651C97.11 12.5876 97.3942 12.4915 97.6866 12.492C97.979 12.4925 98.263 12.5895 98.4937 12.7677C99.6108 13.848 100.356 14.5729 101.444 15.7243C102.747 17.1457 101.1 18.7377 99.6394 17.4016C98.1787 16.0654 97.1762 15.241 96.4744 14.4166V14.3171ZM97.3623 15.9517C97.5485 16.1223 98.7945 17.2168 99.31 17.7001C101.1 19.3347 103.22 17.5295 102.246 15.7669C102.57 15.845 102.909 15.8297 103.224 15.7228C103.539 15.6158 103.817 15.4217 104.025 15.1633C104.232 14.9049 104.361 14.5929 104.396 14.2642C104.431 13.9355 104.371 13.6037 104.222 13.3079C104.554 13.4349 104.922 13.4349 105.253 13.3079C104.737 14.692 104.783 16.2212 105.382 17.5722C105.413 17.6381 105.468 17.6894 105.537 17.7147C105.605 17.7401 105.681 17.7374 105.748 17.7072C105.814 17.677 105.866 17.6219 105.891 17.5539C105.917 17.486 105.914 17.4107 105.884 17.3447C104.838 14.9852 105.712 12.2987 108.146 10.3655C108.418 9.99593 108.017 9.7685 107.803 9.93907C107.272 10.3949 106.679 10.7731 106.041 11.062C104.222 11.858 103.506 10.8346 104.122 10.1523C108.089 5.888 108.189 5.49 110.166 7.79271C111.798 9.69743 110.882 13.9475 112.658 16.5203C109.673 18.7424 107.444 21.8176 106.27 25.3332C99.1239 20.8272 97.6631 17.4158 97.3623 16.0512V15.9517ZM110.452 30.3935L106.156 27.3516C107.588 22.0212 110.452 18.1834 114.333 15.9802L118.544 18.9936C114.79 21.9759 111.981 25.9681 110.452 30.493V30.3935ZM110.91 30.7204C112.389 26.1696 115.183 22.1508 118.945 19.1642C125.776 23.9402 138.536 32.6535 147.315 37.2874C145.998 40.9263 146.299 42.6462 150.18 43.4422C149.707 44.4372 149.206 45.3754 148.647 46.2851C145.883 45.8302 142.346 46.612 138.006 48.6304C131.834 45.4891 118.229 36.0508 110.91 30.8199V30.7204ZM72.4001 48.3035C72.2999 48.3035 72.2283 48.3035 72.2283 48.2182C72.2283 48.1329 72.7152 47.4933 75.0926 46.9816L76.5247 46.6689C79.8032 47.4916 83.0349 48.4881 86.206 49.6539C79.5465 47.9624 77.8852 48.7441 72.4001 48.3035ZM68.1037 44.3235C68.1037 44.1671 68.7052 43.6981 71.1255 43.5701C71.2687 43.5701 74.577 43.3711 76.138 43.4138C79.9341 44.8444 83.4921 46.8329 86.6929 49.3127C77.8709 45.5601 68.1037 44.8352 68.161 44.3235H68.1037ZM71.4406 41.2532C70.1842 40.968 68.9808 40.4883 67.8746 39.8318C67.359 39.4622 67.4592 39.3343 67.9748 39.1637C68.9714 38.9173 70.0005 38.8262 71.0253 38.8936C72.8584 38.6946 82.3965 39.9881 90.4165 42.9874C90.7602 43.1011 90.9463 42.6036 90.617 42.4898C89.8293 42.1913 89.0416 41.9213 88.2539 41.6512C89.9438 40.5567 86.2776 35.9655 85.7047 34.4161C85.5901 34.1034 84.9027 32.3408 85.0889 32.0708C85.3037 32.0708 86.206 32.4972 88.3399 34.5156C92.1902 37.8709 96.2358 40.9987 100.456 43.8829C96.9268 46.2858 94.3854 49.8675 93.2951 53.975C86.1773 47.9482 81.308 43.9824 71.4979 41.2532H71.4406ZM93.3667 56.2777C93.754 53.5647 94.7688 50.9774 96.3316 48.7186C97.8944 46.4597 99.9628 44.5905 102.375 43.2574L106.757 46.1003C102.322 49.447 99.2671 54.283 98.1643 59.7034L93.3667 56.2777ZM150.294 70.3073C146.571 63.8113 146.198 63.2001 145.998 62.9016C145.97 62.871 145.935 62.8466 145.897 62.8299C145.859 62.8131 145.818 62.8045 145.776 62.8045C145.734 62.8045 145.693 62.8131 145.655 62.8299C145.616 62.8466 145.582 62.871 145.554 62.9016C140.142 66.778 134.467 70.2783 128.569 73.3776C122.453 76.2204 119.031 74.5573 112.113 69.6392C107.903 66.6542 102.676 62.9016 98.7945 60.1298C99.8203 54.6929 102.854 49.8317 107.301 46.4983C116.625 52.7099 122.597 56.7468 123.914 57.6281C122.568 58.6231 121.193 59.675 119.761 60.7837C119.733 60.8061 119.709 60.8338 119.692 60.8652C119.674 60.8966 119.663 60.9311 119.659 60.9667C119.655 61.0024 119.659 61.0384 119.669 61.0729C119.679 61.1073 119.695 61.1395 119.718 61.1675C119.741 61.1955 119.769 61.2188 119.8 61.2361C119.832 61.2534 119.867 61.2643 119.902 61.2683C119.938 61.2722 119.975 61.2691 120.009 61.2592C120.044 61.2492 120.077 61.2325 120.105 61.2101C135.729 48.9147 145.898 44.5794 151.211 47.9339C155.006 50.3362 157.57 55.3254 160.276 56.4625C161.007 57.6281 161.708 58.6942 162.41 59.6465C163.49 61.2081 164.903 62.5145 166.549 63.4726C168.195 64.4307 170.034 65.0171 171.934 65.1901C172.865 66.1107 173.855 66.9701 174.898 67.7629C171.619 71.7003 165.761 75.1543 161.264 77.1017C157.335 75.3028 153.649 73.02 150.294 70.3073ZM193.745 162.842C190.486 164.237 187.384 165.971 184.494 168.016L183.062 165.614C186.364 164.36 189.515 162.744 192.456 160.796C192.915 161.535 193.316 162.203 193.745 162.842ZM247.436 87.0517L217.949 120.072C215.882 122.368 213.027 123.818 209.942 124.136C206.856 124.454 203.762 123.618 201.264 121.791C192.915 115.608 186.814 109.382 183.133 103.313C191.425 85.346 187.172 80.4278 185.095 78.0114L184.709 77.5566C184.662 77.5079 184.6 77.478 184.532 77.4727C184.465 77.4673 184.399 77.4869 184.345 77.5275C184.292 77.5682 184.255 77.6271 184.243 77.6929C184.231 77.7587 184.244 77.8266 184.279 77.8835L184.694 78.3668C186.613 80.5984 191.11 85.8009 181.658 105.161C178.894 110.846 174.898 117.954 173.495 121.166C173.481 121.199 173.473 121.234 173.473 121.269C173.472 121.305 173.479 121.34 173.492 121.373C173.506 121.406 173.525 121.436 173.55 121.462C173.575 121.487 173.605 121.507 173.638 121.521C173.671 121.535 173.706 121.543 173.742 121.543C173.778 121.544 173.814 121.537 173.847 121.524C173.88 121.511 173.91 121.491 173.936 121.466C173.962 121.442 173.982 121.412 173.996 121.379C174.411 120.413 174.984 119.233 175.672 117.897C184.709 128.6 189.592 144.065 194.791 158.564C192.512 160.216 190.119 161.708 187.63 163.027L175.128 139.332C175.088 139.28 175.032 139.244 174.968 139.231C174.904 139.217 174.837 139.227 174.78 139.258C174.723 139.289 174.679 139.339 174.656 139.4C174.633 139.46 174.632 139.527 174.655 139.588L187.143 163.283C184.759 164.5 182.247 165.453 179.653 166.126L156.352 125.374C155.125 123.244 154.576 120.796 154.777 118.352C155.752 104.605 158.005 90.9769 161.508 77.6419C166.076 75.6518 172.077 72.1267 175.4 68.0756C181.014 69.6534 190.981 70.1651 199.259 86.9238C201.812 92.2297 205.158 97.1224 209.184 101.437C208.096 103.146 207.208 104.973 206.534 106.881C206.513 106.915 206.499 106.954 206.494 106.995C206.49 107.035 206.495 107.076 206.508 107.114C206.522 107.153 206.544 107.187 206.573 107.216C206.603 107.245 206.638 107.266 206.677 107.28C206.715 107.293 206.757 107.297 206.797 107.292C206.838 107.287 206.877 107.274 206.912 107.252C206.946 107.23 206.975 107.2 206.997 107.165C207.018 107.131 207.032 107.092 207.036 107.051C211.332 94.2584 233.373 77.5992 235.406 76.0925C238.189 77.8341 240.78 79.8587 243.14 82.1336L228.102 97.4992C227.859 97.7409 228.246 98.1247 228.489 97.8688L243.527 82.5031C244.923 83.9381 246.229 85.4571 247.436 87.0517ZM246.004 84.3794C243.675 81.726 241.052 79.3419 238.185 77.2723L239.173 76.1351C241.549 78.7786 244.204 81.1613 247.093 83.2423L246.004 84.3794Z" fill="#120409"/>
<path d="M106.561 5.91787C106.7 5.78512 106.847 5.66174 107 5.54844C106.809 4.596 106.43 3.69795 105.889 2.91399C105.348 2.13004 104.657 1.47815 103.862 1.00166C98.8094 -2.02479 92.8127 2.28044 90.0338 7.59449C90.0003 7.65667 89.9913 7.73052 90.0087 7.7998C90.0262 7.86909 90.0687 7.92812 90.1268 7.96392C90.185 7.99972 90.2541 8.00935 90.319 7.9907C90.3838 7.97205 90.439 7.92664 90.4725 7.86446C93.0653 2.87721 98.7828 -1.42803 103.623 1.47055C104.389 1.9343 105.05 2.57354 105.558 3.34244C106.066 4.11133 106.409 4.99083 106.561 5.91787Z" fill="#F3387E"/>
<path d="M99.5839 17L96.0767 19.6261C96.0397 19.6569 96.0147 19.6954 96.0048 19.7369C95.9949 19.7784 96.0004 19.8213 96.0208 19.8605C96.0411 19.8997 96.0754 19.9334 96.1196 19.9578C96.1637 19.9822 96.2159 19.9961 96.2699 19.998C96.4334 19.998 96.151 20.1723 100 17.2905C99.8663 17.2324 99.7771 17.1627 99.5839 17Z" fill="#F3387E"/>
</svg>
