<svg width="136" height="136" viewBox="0 0 136 136" fill="none" xmlns="http://www.w3.org/2000/svg">
<g id="fingerprint 1" filter="url(#filter0_d_98_3173)">
<g clip-path="url(#clip0_98_3173)">
<rect x="40" y="20" width="56" height="56" rx="28" fill="white"/>
<path id="Vector" d="M81.5567 30.43C81.37 30.43 81.1833 30.3833 81.02 30.29C76.54 27.98 72.6667 27 68.0233 27C63.4033 27 59.0167 28.0967 55.0267 30.29C54.4667 30.5933 53.7667 30.3833 53.44 29.8233C53.1367 29.2633 53.3467 28.54 53.9067 28.2367C58.2467 25.88 63.0067 24.6667 68.0233 24.6667C72.9933 24.6667 77.3333 25.7633 82.0933 28.2133C82.6767 28.5167 82.8867 29.2167 82.5833 29.7767C82.3733 30.1967 81.9767 30.43 81.5567 30.43ZM48.1667 42.68C47.9333 42.68 47.7 42.61 47.49 42.47C46.9533 42.0967 46.8367 41.3733 47.21 40.8367C49.52 37.57 52.46 35.0033 55.96 33.2067C63.2867 29.4267 72.6667 29.4033 80.0167 33.1833C83.5167 34.98 86.4567 37.5233 88.7667 40.7667C89.14 41.28 89.0233 42.0267 88.4867 42.4C87.95 42.7733 87.2267 42.6567 86.8533 42.12C84.7533 39.18 82.0933 36.87 78.9433 35.26C72.2467 31.83 63.6833 31.83 57.01 35.2833C53.8367 36.9167 51.1767 39.25 49.0767 42.19C48.89 42.5167 48.54 42.68 48.1667 42.68ZM62.75 70.8433C62.4467 70.8433 62.1433 70.7267 61.9333 70.4933C59.9033 68.4633 58.8067 67.1567 57.2433 64.3333C55.6333 61.4633 54.7933 57.9633 54.7933 54.2067C54.7933 47.2767 60.72 41.63 68 41.63C75.28 41.63 81.2067 47.2767 81.2067 54.2067C81.2067 54.86 80.6933 55.3733 80.04 55.3733C79.3867 55.3733 78.8733 54.86 78.8733 54.2067C78.8733 48.56 73.9967 43.9633 68 43.9633C62.0033 43.9633 57.1267 48.56 57.1267 54.2067C57.1267 57.5667 57.8733 60.67 59.2967 63.19C60.79 65.8733 61.8167 67.0167 63.6133 68.8367C64.0567 69.3033 64.0567 70.0267 63.6133 70.4933C63.3567 70.7267 63.0533 70.8433 62.75 70.8433ZM79.48 66.5267C76.7033 66.5267 74.2533 65.8267 72.2467 64.45C68.77 62.0933 66.6933 58.2667 66.6933 54.2067C66.6933 53.5533 67.2067 53.04 67.86 53.04C68.5133 53.04 69.0267 53.5533 69.0267 54.2067C69.0267 57.4967 70.7067 60.6 73.5533 62.5133C75.21 63.6333 77.1467 64.17 79.48 64.17C80.04 64.17 80.9733 64.1 81.9067 63.9367C82.5367 63.82 83.1433 64.24 83.26 64.8933C83.3767 65.5233 82.9567 66.13 82.3033 66.2467C80.9733 66.5033 79.8067 66.5267 79.48 66.5267ZM74.79 71.3333C74.6967 71.3333 74.58 71.31 74.4867 71.2867C70.7767 70.26 68.35 68.8833 65.8067 66.3867C62.54 63.1433 60.7433 58.8267 60.7433 54.2067C60.7433 50.4267 63.9633 47.3467 67.93 47.3467C71.8967 47.3467 75.1167 50.4267 75.1167 54.2067C75.1167 56.7033 77.2867 58.7333 79.97 58.7333C82.6533 58.7333 84.8233 56.7033 84.8233 54.2067C84.8233 45.41 77.24 38.27 67.9067 38.27C61.28 38.27 55.2133 41.9567 52.4833 47.6733C51.5733 49.5633 51.1067 51.78 51.1067 54.2067C51.1067 56.0267 51.27 58.8967 52.67 62.63C52.9033 63.2367 52.6 63.9133 51.9933 64.1233C51.3867 64.3567 50.71 64.03 50.5 63.4467C49.3567 60.39 48.7967 57.3567 48.7967 54.2067C48.7967 51.4067 49.3333 48.8633 50.3833 46.6467C53.4867 40.1367 60.37 35.9133 67.9067 35.9133C78.5233 35.9133 87.1567 44.1033 87.1567 54.1833C87.1567 57.9633 83.9367 61.0433 79.97 61.0433C76.0033 61.0433 72.7833 57.9633 72.7833 54.1833C72.7833 51.6867 70.6133 49.6567 67.93 49.6567C65.2467 49.6567 63.0767 51.6867 63.0767 54.1833C63.0767 58.1733 64.6167 61.9067 67.44 64.7067C69.6567 66.9 71.78 68.1133 75.07 69.0233C75.7 69.1867 76.05 69.84 75.8867 70.4467C75.77 70.9833 75.28 71.3333 74.79 71.3333Z" fill="#31D0AA"/>
</g>
</g>
<defs>
<filter id="filter0_d_98_3173" x="0" y="0" width="136" height="136" filterUnits="userSpaceOnUse" color-interpolation-filters="sRGB">
<feFlood flood-opacity="0" result="BackgroundImageFix"/>
<feColorMatrix in="SourceAlpha" type="matrix" values="0 0 0 0 0 0 0 0 0 0 0 0 0 0 0 0 0 0 127 0" result="hardAlpha"/>
<feOffset dy="20"/>
<feGaussianBlur stdDeviation="20"/>
<feComposite in2="hardAlpha" operator="out"/>
<feColorMatrix type="matrix" values="0 0 0 0 0 0 0 0 0 0 0 0 0 0 0 0 0 0 0.1 0"/>
<feBlend mode="normal" in2="BackgroundImageFix" result="effect1_dropShadow_98_3173"/>
<feBlend mode="normal" in="SourceGraphic" in2="effect1_dropShadow_98_3173" result="shape"/>
</filter>
<clipPath id="clip0_98_3173">
<rect x="40" y="20" width="56" height="56" rx="28" fill="white"/>
</clipPath>
</defs>
</svg>
